<!--
  Derived from Connum/HanziVG hanzi/095ee.svg at revision
  55ecef6a881d5120cd261587d668e1b6af843ec2. Original stroke paths are
  unchanged; groups and accessibility metadata are adapted for Monohanzi.
  Source credits: HanziVG https://github.com/Connum/hanzivg, AnimHanzi
  http://gooo.free.fr/animHanzi/, and KanjiVG http://kanjivg.tagaini.net.
  Licensed under CC BY-SA 3.0.
-->
<svg class="glyph-svg" viewBox="0 0 109 109" fill="none" stroke="currentColor" stroke-width="3" stroke-linecap="round" stroke-linejoin="round" color="#20221f" role="img" aria-labelledby="wen-title wen-desc" xmlns="http://www.w3.org/2000/svg">
  <title id="wen-title">问</title>
  <desc id="wen-desc">The original HanziVG strokes for 问, split into door and mouth component groups.</desc>
  <g id="component-door" class="glyph-component" data-component-id="door" tabindex="0" role="button" aria-label="门, door and sound frame, phonetic visual component and radical">
    <path d="M25.42,13.75c2.51,1.37,8.97,9.11,9.5,11.67" />
    <path d="M23.94,29c0.74,0.76,0.95,2.46,0.95,4.04c0,16.29-0.36,41.89-0.36,62.84" />
    <path d="M45,17.83c11.75-1.83,28.68-4.66,35-5.42c3.5-0.42,5.25,0.83,5.25,5.17c0,2.33,0.08,70.25,0.08,73.58c0,11.08-6.08,4.08-8.58,1.58" />
  </g>
  <g id="component-mouth" class="glyph-component" data-component-id="mouth" tabindex="0" role="button" aria-label="口, mouth or speech, semantic component">
    <path d="M36.25,42.11c0.88,0.64,1.62,1.76,1.87,2.92c0.92,4.35,1.84,11.03,2.61,17.07c0.15,1.17,0.29,2.31,0.43,3.41" />
    <path d="M38.71,43.66c9.11-1.03,21.45-2.32,27.33-2.98c3.34-0.37,4.76,0.9,4.01,4.37c-0.9,4.17-1.73,8.1-3.59,14.23" />
    <path d="M42.01,63.52c4.47-0.52,15.74-1.45,23.11-2.08c1.29-0.11,2.46-0.22,3.46-0.31" />
  </g>
</svg>
